<?xml version="1.0" encoding="iso-8859-1"?>
<!-- Generator: Adobe Illustrator 19.0.0, SVG Export Plug-In . SVG Version: 6.00 Build 0)  -->
<svg xmlns="http://www.w3.org/2000/svg" xmlns:xlink="http://www.w3.org/1999/xlink" version="1.1" id="Capa_1" x="0px" y="0px" viewBox="0 0 455 455" style="enable-background:new 0 0 455 455;" xml:space="preserve" width="512" height="512">
<g>
	<path style="fill:#FFB914;" d="M227.5,0C126.71,0,45,81.71,45,182.5c0,35.08,9.91,67.839,27.059,95.659l310.881,0   C400.09,250.339,410,217.58,410,182.5C410,81.71,328.29,0,227.5,0z"/>
	<path style="fill:#19ABBF;" d="M455,335v30l-227.5,10L0,365v-30c47.28-27.97,87.28-66.94,116.5-113.37c0.01,0,221.99,0,221.99,0   C367.72,268.06,407.72,307.03,455,335z"/>
	<path style="fill:#FFFFFF;" d="M338.5,221.63c-0.01,0-37.01,29.12-37.01,29.12l-37-29.12l-37,29.12l-36.99-29.12l-37,29.12   l-36.99-29.12c12.97-20.62,23.82-42.72,32.24-65.99h157.5C314.67,178.91,325.52,201.01,338.5,221.63z"/>
	<rect y="365" style="fill:#68E1F2;" width="455" height="90"/>
	<path style="fill:#19ABBF;" d="M395,385H0v15h395c4.142,0,7.5-3.358,7.5-7.5S399.142,385,395,385z"/>
	<path style="fill:#19ABBF;" d="M395,420c-4.142,0-7.5,3.358-7.5,7.5s3.358,7.5,7.5,7.5h60v-15H395z"/>
	<path style="fill:#19ABBF;" d="M365,435H60c-4.142,0-7.5-3.358-7.5-7.5s3.358-7.5,7.5-7.5h305c4.142,0,7.5,3.358,7.5,7.5   S369.142,435,365,435z"/>
</g>















</svg>
