<?xml version="1.0" encoding="UTF-8" standalone="no"?>
<!-- Created with Inkscape (http://www.inkscape.org/) -->

<svg
   xmlns:dc="http://purl.org/dc/elements/1.1/"
   xmlns:cc="http://creativecommons.org/ns#"
   xmlns:rdf="http://www.w3.org/1999/02/22-rdf-syntax-ns#"
   xmlns:svg="http://www.w3.org/2000/svg"
   xmlns="http://www.w3.org/2000/svg"
   xmlns:sodipodi="http://sodipodi.sourceforge.net/DTD/sodipodi-0.dtd"
   xmlns:inkscape="http://www.inkscape.org/namespaces/inkscape"
   width="210mm"
   height="297mm"
   viewBox="0 0 210 297"
   version="1.1"
   id="svg8"
   sodipodi:docname="logo2.svg"
   inkscape:version="0.92.3 (2405546, 2018-03-11)">
  <defs
     id="defs2">
	
	
	
	
	
	
	
</defs>
  <sodipodi:namedview
     id="base"
     pagecolor="#ffffff"
     bordercolor="#666666"
     borderopacity="1.0"
     inkscape:pageopacity="0.0"
     inkscape:pageshadow="2"
     inkscape:zoom="16"
     inkscape:cx="239.32474"
     inkscape:cy="600.67753"
     inkscape:document-units="mm"
     inkscape:current-layer="layer1"
     showgrid="false"
     showborder="false"
     inkscape:snap-grids="false"
     inkscape:snap-nodes="false"
     inkscape:snap-others="false"
     inkscape:snap-intersection-paths="true"
     inkscape:window-width="2560"
     inkscape:window-height="1346"
     inkscape:window-x="-11"
     inkscape:window-y="-11"
     inkscape:window-maximized="1"
     inkscape:measure-start="239.141,608.016"
     inkscape:measure-end="231.922,606.984"
     inkscape:pagecheckerboard="true">
    <inkscape:grid
       type="xygrid"
       id="grid815" />
  </sodipodi:namedview>
  <metadata
     id="metadata5">
    <rdf:RDF>
      <cc:Work
         rdf:about="">
        <dc:format>image/svg+xml</dc:format>
        <dc:type
           rdf:resource="http://purl.org/dc/dcmitype/StillImage" />
        <dc:title></dc:title>
      </cc:Work>
    </rdf:RDF>
  </metadata>
  <g
     inkscape:groupmode="layer"
     id="layer3"
     inkscape:label="BACK" />
  <g
     inkscape:label="Layer 1"
     inkscape:groupmode="layer"
     id="layer1">
    <path
       style="fill:#b3dfea;fill-opacity:1;stroke:#000000;stroke-width:0;stroke-linecap:butt;stroke-linejoin:miter;stroke-miterlimit:4;stroke-dasharray:none;stroke-dashoffset:0;stroke-opacity:1"
       d="M 70.700259,119.30196 H 30.422424 m 40.277835,0 v -17.36373 c 0.03158,-0.003 -40.277835,0.0329 -40.277835,0.0329 v 17.33044"
       id="path970"
       inkscape:connector-curvature="0"
       sodipodi:nodetypes="cccccc" />
    <path
       inkscape:connector-curvature="0"
       style="fill:#ffb914;stroke-width:0.0394921"
       d="m 70.428266,104.64783 c -3.980408,0 -7.207307,3.22691 -7.207307,7.20733 0,1.38536 0.391391,2.67907 1.068616,3.77778 h 12.277343 c 0.677291,-1.09871 1.068661,-2.39242 1.068661,-3.77778 0,-3.98042 -3.226898,-7.20733 -7.207313,-7.20733 z"
       id="path2149" />
    <path
       inkscape:connector-curvature="0"
       style="fill:#ffb914;fill-opacity:1;stroke:#d5f6ff;stroke-width:0.65790892;stroke-miterlimit:4;stroke-dasharray:none;stroke-opacity:1"
       d="m 79.146974,110.98691 a 8.7035863,8.7035863 0 0 1 -8.703589,8.70355 8.7035863,8.7035863 0 0 1 -8.703589,-8.70355 8.7035863,8.7035863 0 0 1 8.703589,-8.7036 8.7035863,8.7035863 0 0 1 8.703589,8.7036 z"
       id="path817-0" />
    <path
       style="fill:#19abbf;stroke-width:0.0394921"
       d="m 66.045928,113.39953 c -0.636329,1.01114 -1.412662,1.92162 -2.284694,2.73006 a 8.7035863,8.7035863 0 0 0 6.724882,3.18224 8.7035863,8.7035863 0 0 0 6.677289,-3.12441 c -0.899309,-0.82291 -1.700234,-1.75148 -2.352689,-2.78789 z"
       id="path2151"
       inkscape:connector-curvature="0" />
    <path
       inkscape:connector-curvature="0"
       style="fill:#ffffff;stroke-width:0.0394921"
       d="m 74.811894,113.40045 c -3.95e-4,0 -1.461604,1.15003 -1.461604,1.15003 l -1.461209,-1.15003 -1.46121,1.15003 -1.460807,-1.15003 -1.46121,1.15003 -1.460814,-1.15003 c 0.512182,-0.81429 2.961182,-3.35783 4.498215,-4.2768 1.51875,1.03825 3.820622,3.38797 4.268639,4.2768 z"
       id="path2153"
       sodipodi:nodetypes="ccccccccc" />
    <circle
       style="fill:#216778;fill-opacity:1;stroke:none;stroke-width:0;stroke-miterlimit:4;stroke-dasharray:none"
       id="path817"
       cx="30.422441"
       cy="110.59837"
       r="8.7035866" />
    <path
       style="font-style:normal;font-weight:normal;font-size:18.20610428px;line-height:1.25;font-family:sans-serif;letter-spacing:0px;word-spacing:0px;fill:#d7eef4;fill-opacity:1;stroke:none;stroke-width:1.72026181"
       d="M 97.158203 390.34766 C 95.321236 391.54036 93.716384 392.79684 92.152344 394.33008 L 92.609375 394.91602 L 92.611328 394.91602 L 110.93359 418.17383 L 92.191406 441.38477 L 92.189453 441.38477 L 92.023438 441.56836 C 93.587478 443.1016 94.997017 444.26433 96.833984 445.45703 L 99.978516 441.41016 L 99.980469 441.41016 L 115.01758 422.26562 L 129.68945 441.40625 L 129.67383 441.40625 L 132.88672 445.60742 C 134.72369 444.41472 136.47502 443.01566 138.03906 441.48242 L 137.97266 441.4043 L 137.9668 441.4043 L 119.42773 417.89258 L 138 394.91797 L 138.00586 394.91797 L 138.1875 394.69727 C 136.62346 393.16402 135.20025 391.91536 133.36328 390.72266 L 130.16602 394.9082 L 130.16406 394.9082 L 115.34375 413.80273 L 100.84766 394.9082 L 100.83398 394.9082 L 97.158203 390.34766 z "
       transform="scale(0.26458333)"
       id="text836" />
    <text
       xml:space="preserve"
       style="font-style:normal;font-weight:normal;font-size:18.30818558px;line-height:1.25;font-family:sans-serif;letter-spacing:0px;word-spacing:0px;fill:#2c89a0;fill-opacity:1;stroke:none;stroke-width:0.45770463"
       x="35.727718"
       y="125.82218"
       id="text836-1"
       transform="scale(1.0758479,0.92949942)"><tspan
         sodipodi:role="line"
         id="tspan834-6"
         x="35.727718"
         y="125.82218"
         style="fill:#2c89a0;stroke-width:0.45770463">P</tspan></text>
    <text
       xml:space="preserve"
       style="font-style:normal;font-weight:normal;font-size:18.30818558px;line-height:1.25;font-family:sans-serif;letter-spacing:0px;word-spacing:0px;fill:#37abc8;fill-opacity:1;stroke:none;stroke-width:0.45770463"
       x="45.908211"
       y="125.84959"
       id="text836-1-4"
       transform="scale(1.0758479,0.92949942)"><tspan
         sodipodi:role="line"
         id="tspan834-6-5"
         x="45.908211"
         y="125.84959"
         style="fill:#37abc8;stroke-width:0.45770463">L</tspan></text>
    <path
       style="fill:#b3dfea;fill-opacity:1;stroke:#000000;stroke-width:0;stroke-linecap:butt;stroke-linejoin:miter;stroke-miterlimit:4;stroke-dasharray:none;stroke-dashoffset:0;stroke-opacity:1"
       d="M 65.017356,145.28173 H 30.586039 m 34.431317,0 V 127.918 c 0.027,-0.003 -34.431317,0.0329 -34.431317,0.0329 v 17.33044"
       id="path970-9"
       inkscape:connector-curvature="0"
       sodipodi:nodetypes="cccccc" />
    <path
       inkscape:connector-curvature="0"
       style="fill:#ffb914;fill-opacity:1;stroke:#d5f6ff;stroke-width:1.75144482;stroke-miterlimit:4;stroke-dasharray:none;stroke-opacity:1"
       d="m 72.737664,136.59934 a 7.7928306,7.7928306 0 0 1 -7.792832,7.79281 7.7928306,7.7928306 0 0 1 -7.792832,-7.79281 7.7928306,7.7928306 0 0 1 7.792832,-7.79284 7.7928306,7.7928306 0 0 1 7.792832,7.79284 z"
       id="path817-0-2" />
    <text
       xml:space="preserve"
       style="font-style:normal;font-weight:normal;font-size:18.30818558px;line-height:1.25;font-family:sans-serif;letter-spacing:0px;word-spacing:0px;fill:#2c89a0;fill-opacity:1;stroke:none;stroke-width:0.45770463"
       x="34.665127"
       y="153.77246"
       id="text836-1-8"
       transform="scale(1.0758479,0.92949942)"><tspan
         sodipodi:role="line"
         id="tspan834-6-6"
         x="34.665127"
         y="153.77246"
         style="fill:#2c89a0;stroke-width:0.45770463">P</tspan></text>
    <text
       xml:space="preserve"
       style="font-style:normal;font-weight:normal;font-size:18.30818558px;line-height:1.25;font-family:sans-serif;letter-spacing:0px;word-spacing:0px;fill:#37abc8;fill-opacity:1;stroke:none;stroke-width:0.45770463"
       x="43.386654"
       y="153.79987"
       id="text836-1-4-2"
       transform="scale(1.0758479,0.92949942)"><tspan
         sodipodi:role="line"
         id="tspan834-6-5-3"
         x="43.386654"
         y="153.79987"
         style="fill:#37abc8;stroke-width:0.45770463">L</tspan></text>
    <path
       inkscape:connector-curvature="0"
       style="fill:#ffb914;stroke-width:0.0394921"
       d="m 70.578355,179.47918 c -3.980408,0 -7.207307,3.22692 -7.207307,7.20733 0,1.38536 0.39139,2.67907 1.068615,3.77778 h 12.277344 c 0.677291,-1.09871 1.068661,-2.39242 1.068661,-3.77778 0,-3.98041 -3.226898,-7.20733 -7.207313,-7.20733 z"
       id="path2149-2-3" />
    <path
       inkscape:connector-curvature="0"
       style="fill:#ffffff;fill-opacity:1;stroke:#d5f6ff;stroke-width:0.65790892;stroke-miterlimit:4;stroke-dasharray:none;stroke-opacity:1"
       d="m 79.297063,185.81827 a 8.7035863,8.7035863 0 0 1 -8.703589,8.70354 8.7035863,8.7035863 0 0 1 -8.703589,-8.70354 8.7035863,8.7035863 0 0 1 8.703589,-8.70361 8.7035863,8.7035863 0 0 1 8.703589,8.70361 z"
       id="path817-0-2-9" />
    <circle
       style="fill:#216778;fill-opacity:1;stroke:none;stroke-width:0;stroke-miterlimit:4;stroke-dasharray:none"
       id="path817-5"
       cx="30.448681"
       cy="185.51773"
       r="8.7035866" />
    <path
       inkscape:connector-curvature="0"
       style="font-style:normal;font-weight:normal;font-size:18.20610428px;line-height:1.25;font-family:sans-serif;letter-spacing:0px;word-spacing:0px;fill:#d7eef4;fill-opacity:1;stroke:none;stroke-width:0.4551526"
       d="m 25.73268,178.1993 c -0.486031,0.31557 -0.910648,0.64801 -1.324467,1.05368 l 0.120923,0.15503 h 5.29e-4 l 4.847765,6.15363 -4.958869,6.14123 h -5.3e-4 l -0.04392,0.0486 c 0.413819,0.40567 0.78676,0.71331 1.272791,1.02888 l 0.83199,-1.07074 h 5.3e-4 l 3.978569,-5.06532 3.881932,5.06429 h -0.0041 l 0.850077,1.11156 c 0.486031,-0.31557 0.949404,-0.68574 1.363223,-1.09141 l -0.01757,-0.0207 h -0.0016 l -4.905122,-6.22081 4.913913,-6.0787 h 0.0016 l 0.04806,-0.0584 c -0.413833,-0.40568 -0.79039,-0.73605 -1.276422,-1.05162 l -0.845942,1.10742 h -5.29e-4 l -3.921207,4.99918 -3.835424,-4.99918 h -0.0036 z"
       id="text836-6" />
    <text
       xml:space="preserve"
       style="font-style:normal;font-weight:normal;font-size:18.30818558px;line-height:1.25;font-family:sans-serif;letter-spacing:0px;word-spacing:0px;fill:#2c89a0;fill-opacity:1;stroke:none;stroke-width:0.45770463"
       x="35.867283"
       y="206.32927"
       id="text836-1-8-8"
       transform="scale(1.0758479,0.92949942)"><tspan
         sodipodi:role="line"
         id="tspan834-6-6-0"
         x="35.867283"
         y="206.32927"
         style="fill:#2c89a0;stroke-width:0.45770463">P</tspan></text>
    <text
       xml:space="preserve"
       style="font-style:normal;font-weight:normal;font-size:18.30818558px;line-height:1.25;font-family:sans-serif;letter-spacing:0px;word-spacing:0px;fill:#37abc8;fill-opacity:1;stroke:none;stroke-width:0.45770463"
       x="46.047775"
       y="206.35667"
       id="text836-1-4-2-1"
       transform="scale(1.0758479,0.92949942)"><tspan
         sodipodi:role="line"
         id="tspan834-6-5-3-5"
         x="46.047775"
         y="206.35667"
         style="fill:#37abc8;stroke-width:0.45770463">L</tspan></text>
    <circle
       style="fill:#216778;fill-opacity:1;stroke:none;stroke-width:0;stroke-miterlimit:4;stroke-dasharray:none"
       id="path817-3"
       cx="30.526302"
       cy="136.59636"
       r="8.7035866" />
    <path
       inkscape:connector-curvature="0"
       style="font-style:normal;font-weight:normal;font-size:18.20610428px;line-height:1.25;font-family:sans-serif;letter-spacing:0px;word-spacing:0px;fill:#d7eef4;fill-opacity:1;stroke:none;stroke-width:0.4551526"
       d="m 25.810301,129.27747 c -0.486031,0.31557 -0.910648,0.64801 -1.324467,1.05368 l 0.120923,0.15503 h 5.29e-4 l 4.847765,6.15363 -4.95887,6.14123 h -5.29e-4 l -0.04393,0.0486 c 0.413819,0.40567 0.78676,0.71331 1.27279,1.02887 l 0.831991,-1.07073 h 5.29e-4 l 3.978569,-5.06533 3.881933,5.0643 h -0.0041 l 0.850077,1.11156 c 0.486031,-0.31557 0.949404,-0.68574 1.363223,-1.09141 l -0.01757,-0.0207 h -0.0016 l -4.905123,-6.22081 4.913914,-6.0787 h 0.0016 l 0.04806,-0.0584 c -0.413833,-0.40567 -0.79039,-0.73604 -1.276422,-1.05161 l -0.845942,1.10742 h -5.29e-4 l -3.921207,4.99918 -3.835424,-4.99918 h -0.0036 z"
       id="text836-0" />
    <path
       style="fill:#b3dfea;fill-opacity:1;stroke:#000000;stroke-width:0;stroke-linecap:butt;stroke-linejoin:miter;stroke-miterlimit:4;stroke-dasharray:none;stroke-dashoffset:0;stroke-opacity:1"
       d="m 153.12224,118.81361 c -6.37992,3.16119 -17.64307,4.13153 -40.27786,0 m 40.27786,0 v -17.36373 c 0.0316,-0.003 -10.71783,-5.345899 -40.27786,0.0329 v 17.33044"
       id="path970-2"
       inkscape:connector-curvature="0"
       sodipodi:nodetypes="cccccc" />
    <path
       inkscape:connector-curvature="0"
       style="fill:#ffb914;stroke-width:0.0394921"
       d="m 152.85024,104.15948 c -3.9804,0 -7.2073,3.22691 -7.2073,7.20733 0,1.38536 0.39139,2.67907 1.06861,3.77778 h 12.27735 c 0.67729,-1.09871 1.06866,-2.39242 1.06866,-3.77778 0,-3.98042 -3.2269,-7.20733 -7.20732,-7.20733 z"
       id="path2149-7" />
    <path
       inkscape:connector-curvature="0"
       style="fill:#ffb914;fill-opacity:1;stroke:#d5f6ff;stroke-width:0.65790892;stroke-miterlimit:4;stroke-dasharray:none;stroke-opacity:1"
       d="m 161.56895,110.49856 a 8.7035865,8.7035865 0 0 1 -8.70359,8.70355 8.7035865,8.7035865 0 0 1 -8.70359,-8.70355 8.7035865,8.7035865 0 0 1 8.70359,-8.7036 8.7035865,8.7035865 0 0 1 8.70359,8.7036 z"
       id="path817-0-5" />
    <path
       style="fill:#19abbf;stroke-width:0.0394921"
       d="m 148.46791,112.91118 c -0.63633,1.01114 -1.41267,1.92162 -2.2847,2.73006 a 8.7035865,8.7035865 0 0 0 6.72488,3.18224 8.7035865,8.7035865 0 0 0 6.67729,-3.12441 c -0.89931,-0.82291 -1.70023,-1.75148 -2.35269,-2.78789 z"
       id="path2151-7"
       inkscape:connector-curvature="0" />
    <path
       inkscape:connector-curvature="0"
       style="fill:#ffffff;stroke-width:0.0394921"
       d="m 157.23387,112.9121 c -2.6e-4,0 -1.4616,1.15003 -1.4616,1.15003 l -1.46121,-1.15003 -1.46121,1.15003 -1.46081,-1.15003 -1.46121,1.15003 -1.46081,-1.15003 c 0.51218,-0.81429 2.96118,-3.35783 4.49821,-4.2768 1.51875,1.03825 3.82062,3.38797 4.26864,4.2768 z"
       id="path2153-5"
       sodipodi:nodetypes="ccccccccc" />
    <circle
       style="fill:#216778;fill-opacity:1;stroke:none;stroke-width:0;stroke-miterlimit:4;stroke-dasharray:none"
       id="path817-4"
       cx="112.84425"
       cy="110.11002"
       r="8.7035866" />
    <path
       inkscape:connector-curvature="0"
       style="font-style:normal;font-weight:normal;font-size:18.20610428px;line-height:1.25;font-family:sans-serif;letter-spacing:0px;word-spacing:0px;fill:#d7eef4;fill-opacity:1;stroke:none;stroke-width:0.4551526"
       d="m 108.12837,102.79114 c -0.48603,0.31557 -0.91065,0.64801 -1.32447,1.05368 l 0.12092,0.15503 h 5.3e-4 l 4.84779,6.15363 -4.95889,6.14123 h -5.3e-4 l -0.0439,0.0486 c 0.41382,0.40567 0.78676,0.71331 1.2728,1.02887 l 0.83199,-1.07073 h 5.3e-4 l 3.97859,-5.06533 3.88195,5.0643 h -0.004 l 0.85008,1.11156 c 0.48603,-0.31557 0.9494,-0.68574 1.36322,-1.09141 l -0.0176,-0.0207 h -0.002 l -4.90513,-6.22082 4.91392,-6.07869 h 0.002 l 0.0481,-0.0584 c -0.41383,-0.40567 -0.79039,-0.73604 -1.27642,-1.05161 l -0.84594,1.10742 h -5.3e-4 l -3.92123,4.99918 -3.83544,-4.99918 h -0.004 z"
       id="text836-03" />
    <text
       xml:space="preserve"
       style="font-style:normal;font-weight:normal;font-size:18.30818558px;line-height:1.25;font-family:sans-serif;letter-spacing:0px;word-spacing:0px;fill:#2c89a0;fill-opacity:1;stroke:none;stroke-width:0.45770463"
       x="112.3388"
       y="125.29679"
       id="text836-1-49"
       transform="scale(1.0758479,0.92949942)"><tspan
         sodipodi:role="line"
         id="tspan834-6-4"
         x="112.3388"
         y="125.29679"
         style="fill:#2c89a0;stroke-width:0.45770463">P</tspan></text>
    <text
       xml:space="preserve"
       style="font-style:normal;font-weight:normal;font-size:18.30818558px;line-height:1.25;font-family:sans-serif;letter-spacing:0px;word-spacing:0px;fill:#37abc8;fill-opacity:1;stroke:none;stroke-width:0.45770463"
       x="122.5193"
       y="125.3242"
       id="text836-1-4-1"
       transform="scale(1.0758479,0.92949942)"><tspan
         sodipodi:role="line"
         id="tspan834-6-5-8"
         x="122.5193"
         y="125.3242"
         style="fill:#37abc8;stroke-width:0.45770463">L</tspan></text>
    <path
       style="fill:#b3dfea;fill-opacity:1;stroke:#000000;stroke-width:0;stroke-linecap:butt;stroke-linejoin:miter;stroke-miterlimit:4;stroke-dasharray:none;stroke-dashoffset:0;stroke-opacity:1"
       d="m 153.78239,145.15695 c -6.37992,3.16119 -17.64307,4.13153 -40.27786,0 m 40.27786,0 v -17.36373 c 0.0316,-0.003 -10.71783,-5.3459 -40.27786,0.0329 v 17.33044"
       id="path970-2-2"
       inkscape:connector-curvature="0"
       sodipodi:nodetypes="cccccc" />
    <path
       inkscape:connector-curvature="0"
       style="fill:#ffb914;stroke-width:0.0394921"
       d="m 153.51039,130.50282 c -3.9804,0 -7.2073,3.22691 -7.2073,7.20733 0,1.38536 0.39139,2.67907 1.06861,3.77778 h 12.27735 c 0.67729,-1.09871 1.06866,-2.39242 1.06866,-3.77778 0,-3.98042 -3.2269,-7.20733 -7.20732,-7.20733 z"
       id="path2149-7-5" />
    <path
       inkscape:connector-curvature="0"
       style="fill:#ffb914;fill-opacity:1;stroke:#d5f6ff;stroke-width:0.65790892;stroke-miterlimit:4;stroke-dasharray:none;stroke-opacity:1"
       d="m 162.2291,136.8419 a 8.7035865,8.7035865 0 0 1 -8.70359,8.70355 8.7035865,8.7035865 0 0 1 -8.70359,-8.70355 8.7035865,8.7035865 0 0 1 8.70359,-8.7036 8.7035865,8.7035865 0 0 1 8.70359,8.7036 z"
       id="path817-0-5-4" />
    <circle
       style="fill:#216778;fill-opacity:1;stroke:none;stroke-width:0;stroke-miterlimit:4;stroke-dasharray:none"
       id="path817-4-7"
       cx="113.50445"
       cy="136.45335"
       r="8.7035866" />
    <path
       inkscape:connector-curvature="0"
       style="font-style:normal;font-weight:normal;font-size:18.20610428px;line-height:1.25;font-family:sans-serif;letter-spacing:0px;word-spacing:0px;fill:#d7eef4;fill-opacity:1;stroke:none;stroke-width:0.4551526"
       d="m 108.78853,129.13448 c -0.48604,0.31557 -0.91066,0.64801 -1.32448,1.05368 l 0.12092,0.15503 h 5.3e-4 l 4.8478,6.15363 -4.9589,6.14123 h -5.3e-4 l -0.0439,0.0486 c 0.41382,0.40567 0.78676,0.71331 1.2728,1.02887 l 0.83199,-1.07073 h 5.3e-4 l 3.97859,-5.06533 3.88195,5.0643 h -0.004 l 0.85008,1.11156 c 0.48603,-0.31557 0.9494,-0.68574 1.36322,-1.09141 l -0.0176,-0.0207 h -0.002 l -4.90513,-6.22082 4.91392,-6.07869 h 0.002 l 0.0481,-0.0584 c -0.41383,-0.40567 -0.79039,-0.73604 -1.27642,-1.05161 l -0.84594,1.10742 h -5.3e-4 l -3.92123,4.99918 -3.83544,-4.99918 h -0.004 z"
       id="text836-03-0" />
    <text
       xml:space="preserve"
       style="font-style:normal;font-weight:normal;font-size:18.30818558px;line-height:1.25;font-family:sans-serif;letter-spacing:0px;word-spacing:0px;fill:#2c89a0;fill-opacity:1;stroke:none;stroke-width:0.45770463"
       x="112.95241"
       y="153.63821"
       id="text836-1-49-5"
       transform="scale(1.0758479,0.92949942)"><tspan
         sodipodi:role="line"
         id="tspan834-6-4-7"
         x="112.95241"
         y="153.63821"
         style="fill:#2c89a0;stroke-width:0.45770463">P</tspan></text>
    <text
       xml:space="preserve"
       style="font-style:normal;font-weight:normal;font-size:18.30818558px;line-height:1.25;font-family:sans-serif;letter-spacing:0px;word-spacing:0px;fill:#37abc8;fill-opacity:1;stroke:none;stroke-width:0.45770463"
       x="123.13291"
       y="153.66563"
       id="text836-1-4-1-1"
       transform="scale(1.0758479,0.92949942)"><tspan
         sodipodi:role="line"
         id="tspan834-6-5-8-0"
         x="123.13291"
         y="153.66563"
         style="fill:#37abc8;stroke-width:0.45770463">L</tspan></text>
    <path
       inkscape:connector-curvature="0"
       style="opacity:1;fill:#25540f;fill-rule:evenodd;stroke:#25540f;stroke-width:0.01125367px;stroke-linecap:butt;stroke-linejoin:miter;stroke-opacity:1"
       d="m 153.69235,129.90797 v 0.09 h 0.0788 q 0.09,0 0.09,0.045 0,0.045 0.045,0.045 0.045,0 0.045,0.045 0,0.045 0.045,0.045 0.045,0 0.045,0.045 0,0.045 0.045,0.045 0.045,0 0.045,0.09 0,0.0787 0.045,0.0787 0.045,0 0.045,0.09 0,0.09 0.045,0.09 0.045,0 0.045,0.39388 v 0.39388 h 0.09 q 0.0787,0 0.0787,0.0337 0,0.045 0.045,0.045 0.045,0 0.045,0.045 0,0.045 0.045,0.045 0.045,0 0.045,0.13504 0,0.13505 0.045,0.13505 0.045,0 0.045,0.045 0,0.045 0.045,0.045 0.045,0 0.045,0.045 0,0.045 0.0337,0.045 0.0338,0 0.0338,0.045 0,0.0337 0.045,0.0337 0.045,0 0.045,0.045 0,0.045 0.045,0.045 0.045,0 0.045,0.0787 0,0.09 0.045,0.09 h 0.045 v 0.045 0.045 h -0.045 q -0.045,0 -0.045,0.09 0,0.0787 -0.045,0.0787 -0.045,0 -0.045,0.045 0,0.045 -0.045,0.045 -0.045,0 -0.045,0.045 0,0.045 -0.0338,0.045 -0.0337,0 -0.0337,0.045 0,0.045 -0.045,0.045 -0.045,0 -0.045,0.30386 0,0.31509 0.045,0.31509 0.045,0 0.045,0.045 0,0.045 0.0787,0.045 0.0788,0 0.0788,0.045 0,0.045 0.18006,0.045 h 0.18006 v 0.09 q 0,0.0787 0.045,0.0787 0.045,0 0.045,0.0788 0,0.09 0.0338,0.09 0.045,0 0.045,0.045 0,0.045 0.045,0.045 0.045,0 0.045,0.09 0,0.0788 0.045,0.0788 0.045,0 0.045,0.13504 0,0.13505 -0.045,0.13505 -0.045,0 -0.045,0.045 0,0.045 -0.045,0.045 -0.045,0 -0.045,0.09 0,0.09 -0.045,0.09 -0.0338,0 -0.0338,0.16881 0,0.18006 -0.045,0.18006 -0.045,0 -0.045,0.045 0,0.045 -0.30385,0.045 -0.30385,0 -0.30385,0.045 0,0.045 -0.045,0.045 -0.045,0 -0.045,0.12379 0,0.12379 0.045,0.12379 0.045,0 0.045,0.045 0,0.045 0.21382,0.045 0.21382,0 0.21382,0.045 0,0.045 0.09,0.045 0.09,0 0.09,0.045 0,0.045 0.0787,0.045 0.09,0 0.09,0.045 0,0.045 0.045,0.045 0.045,0 0.045,0.045 0,0.0337 0.045,0.0337 0.045,0 0.045,0.09 0,0.09 0.045,0.09 0.045,0 0.045,0.09 0,0.09 0.045,0.09 0.045,0 0.045,0.43889 0,0.42764 -0.045,0.42764 -0.045,0 -0.045,0.40513 0,0.39388 0.045,0.39388 0.045,0 0.045,0.045 0,0.045 0.045,0.045 0.045,0 0.045,0.0337 0,0.045 0.045,0.045 0.0338,0 0.0338,0.09 0,0.09 0.045,0.09 0.045,0 0.045,0.34887 0,0.34886 -0.045,0.34886 -0.045,0 -0.045,0.13505 0,0.12378 0.045,0.12378 0.045,0 0.045,0.39388 0,0.39388 -0.045,0.39388 -0.045,0 -0.045,0.25883 0,0.2701 0.045,0.2701 0.045,0 0.045,0.045 0,0.045 0.045,0.045 0.045,0 0.045,0.13504 0,0.12379 0.045,0.12379 0.045,0 0.045,0.09 0,0.09 0.045,0.09 0.045,0 0.045,0.045 0,0.045 0.045,0.045 0.045,0 0.045,0.09 v 0.09 h -0.66396 q -0.66397,0 -0.66397,0.045 0,0.045 -0.13504,0.045 -0.13504,0 -0.13504,0.0337 0,0.045 -0.1238,0.045 -0.12379,0 -0.12379,0.045 0,0.0337 -0.09,0.0337 -0.09,0 -0.09,0.045 0,0.045 -0.045,0.045 -0.045,0 -0.045,0.045 0,0.045 -0.0338,0.045 -0.045,0 -0.045,0.045 0,0.045 -0.045,0.045 -0.045,0 -0.045,0.045 0,0.045 -0.045,0.045 -0.045,0 -0.045,0.0787 0,0.09 -0.045,0.09 -0.045,0 -0.045,0.13505 0,0.13505 -0.045,0.13505 -0.045,0 -0.045,0.18006 0,0.1688 -0.045,0.1688 -0.045,0 -0.045,0.25883 0,0.25884 -0.045,0.25884 -0.0338,0 -0.0338,0.78775 0,0.78776 0.0338,0.78776 0.045,0 0.045,0.27009 0,0.27009 0.045,0.27009 0.045,0 0.045,0.21382 0,0.22507 0.045,0.22507 0.045,0 0.045,0.13505 0,0.12378 0.045,0.12378 0.045,0 0.045,0.12379 0,0.13505 0.045,0.13505 0.045,0 0.045,0.09 0,0.09 0.045,0.09 0.045,0 0.045,0.045 0,0.0338 0.045,0.0338 0.0338,0 0.0338,0.09 0,0.09 0.045,0.09 0.045,0 0.045,0.09 0,0.09 0.045,0.09 0.045,0 0.045,0.045 0,0.045 0.045,0.045 0.045,0 0.045,0.0338 0,0.045 0.045,0.045 0.045,0 0.045,0.045 0,0.045 0.0787,0.045 0.0788,0 0.0788,0.045 0,0.045 0.13504,0.045 0.13505,0 0.13505,0.045 0,0.045 0.09,0.045 0.09,0 0.09,0.045 0,0.045 0.045,0.045 h 0.045 v 0.045 0.045 h -0.09 q -0.09,0 -0.09,0.045 0,0.0338 -0.21381,0.0338 -0.21383,0 -0.21383,0.045 0,0.045 -0.22507,0.045 -0.22507,0 -0.22507,-0.045 0,-0.045 -0.16881,-0.045 -0.18006,0 -0.18006,-0.0338 0,-0.045 -0.13504,-0.045 -0.12379,0 -0.13504,-0.045 0,-0.045 -0.38263,-0.045 -0.39388,0 -0.39388,0.045 0,0.045 -0.13504,0.045 -0.13505,0 -0.13505,0.045 0,0.0338 -0.1688,0.0338 -0.18006,0 -0.18006,0.045 0,0.045 -0.13504,0.045 -0.13505,0 -0.13505,-0.045 0,-0.045 -0.09,-0.045 h -0.0787 v -0.0787 q 0,-0.09 0.045,-0.09 0.045,0 0.045,-0.09 0,-0.09 0.0337,-0.09 0.045,0 0.045,-0.13504 0,-0.12379 0.045,-0.12379 0.045,0 0.045,-0.09 0,-0.09 0.045,-0.09 0.045,0 0.045,-0.09 0,-0.09 0.045,-0.09 0.045,0 0.045,-0.0787 0,-0.09 0.045,-0.09 0.045,0 0.045,-0.13505 0,-0.12379 0.045,-0.12379 0.045,0 0.045,-0.09 0,-0.09 0.045,-0.09 0.045,0 0.045,-0.1688 0,-0.18006 0.045,-0.18006 0.0337,0 0.0337,-0.18005 0,-0.16881 0.045,-0.16881 0.045,0 0.045,-1.63178 0,-1.62053 -0.045,-1.62053 -0.045,0 -0.045,-0.045 0,-0.045 -0.0337,-0.045 -0.045,0 -0.045,-0.045 0,-0.0337 -0.045,-0.0337 -0.045,0 -0.045,-0.045 0,-0.045 -0.09,-0.045 -0.09,0 -0.09,-0.045 0,-0.045 -0.09,-0.045 -0.09,0 -0.09,-0.045 0,-0.045 -0.13505,-0.045 -0.12379,0 -0.12379,-0.045 0,-0.045 -0.18006,-0.045 -0.18006,0 -0.18006,-0.0337 0,-0.045 -0.12378,-0.045 -0.1238,0 -0.1238,-0.045 0,-0.0337 -0.09,-0.0337 -0.09,0 -0.09,-0.045 0,-0.045 -0.045,-0.045 h -0.045 v -0.045 -0.045 h 0.18006 q 0.18006,0 0.18006,0.045 0,0.045 0.16881,0.045 h 0.1688 v -0.09 q 0,-0.09 -0.045,-0.09 -0.045,0 -0.045,-0.045 0,-0.045 -0.045,-0.045 -0.045,0 -0.045,-0.045 0,-0.045 -0.0338,-0.045 -0.0337,0 -0.0337,-0.0788 0,-0.09 -0.045,-0.09 -0.045,0 -0.045,-0.09 0,-0.09 -0.045,-0.09 -0.045,0 -0.045,-0.09 0,-0.09 -0.045,-0.09 -0.045,0 -0.045,-0.09 0,-0.0788 -0.045,-0.0788 -0.045,0 -0.045,-0.045 0,-0.045 -0.045,-0.045 -0.045,0 -0.045,-0.09 0,-0.09 -0.045,-0.09 -0.045,0 -0.045,-0.0337 0,-0.045 -0.0788,-0.045 -0.09,0 -0.09,-0.045 0,-0.045 -0.18006,-0.045 -0.18006,0 -0.18006,0.045 0,0.045 -0.27008,0.045 h -0.25884 v -0.045 -0.045 h 0.045 q 0.045,0 0.045,-0.09 0,-0.0788 0.045,-0.0788 0.045,0 0.045,-0.045 0,-0.045 0.045,-0.045 0.045,0 0.045,-0.045 0,-0.045 0.045,-0.045 0.045,0 0.045,-0.045 0,-0.045 0.0788,-0.045 0.09,0 0.09,-0.045 0,-0.045 0.18006,-0.045 0.18006,0 0.18006,-0.045 0,-0.045 0.045,-0.045 0.045,0 0.045,-0.0337 0,-0.045 0.045,-0.045 0.0337,0 0.0337,-0.09 0,-0.09 0.045,-0.09 0.045,0 0.045,-0.045 0,-0.045 0.045,-0.045 0.045,0 0.045,-0.09 0,-0.09 0.045,-0.09 0.045,0 0.045,-0.045 0,-0.0337 0.09,-0.0337 0.09,0 0.09,-0.045 0,-0.045 0.045,-0.045 0.045,0 0.045,-0.045 0,-0.045 0.0337,-0.045 0.0338,0 0.0338,-0.0337 0,-0.045 0.09,-0.045 0.09,0 0.09,-0.045 0,-0.045 0.13505,-0.045 0.13504,0 0.13504,0.045 0,0.045 0.1688,0.045 0.18006,0 0.18006,-0.045 0,-0.045 0.045,-0.045 0.045,0 0.045,-0.045 0,-0.045 0.09,-0.045 0.09,0 0.09,-0.045 0,-0.045 0.045,-0.045 0.0337,0 0.0337,-0.09 0,-0.0788 0.045,-0.0788 0.045,0 0.045,-0.18006 0,-0.18005 -0.045,-0.18005 -0.045,0 -0.045,-0.0338 0,-0.045 -0.25883,-0.045 -0.27009,0 -0.27009,0.045 0,0.0338 -0.045,0.0338 -0.045,0 -0.045,0.045 v 0.045 h -0.045 -0.0337 v -0.045 q 0,-0.045 -0.045,-0.045 -0.045,0 -0.045,-0.0338 0,-0.045 -0.09,-0.045 -0.09,0 -0.09,-0.045 0,-0.045 -0.12379,-0.045 -0.12379,0 -0.12379,0.045 0,0.045 -0.045,0.045 -0.045,0 -0.045,0.045 0,0.0338 -0.045,0.0338 -0.045,0 -0.045,0.045 0,0.045 -0.13504,0.045 h -0.13505 v -0.21382 q 0,-0.22507 0.045,-0.22507 0.045,0 0.045,-0.045 0,-0.045 0.045,-0.045 0.045,0 0.045,-0.045 0,-0.045 0.045,-0.045 0.045,0 0.045,-0.0787 0,-0.0788 0.045,-0.0788 0.045,0 0.045,-0.09 0,-0.09 0.045,-0.09 0.045,0 0.045,-0.52892 0,-0.52892 -0.045,-0.52892 -0.045,0 -0.045,-0.09 0,-0.09 0.045,-0.09 0.045,0 0.045,-0.51767 0,-0.52892 0.0337,-0.52892 0.0338,0 0.0338,-0.09 0,-0.09 0.045,-0.09 0.045,0 0.045,-0.0788 0,-0.09 0.045,-0.09 0.045,0 0.045,-0.09 0,-0.09 0.045,-0.09 0.045,0 0.045,-0.09 0,-0.0788 0.045,-0.0788 0.045,0 0.045,-0.045 0,-0.045 0.045,-0.045 0.045,0 0.045,-0.0337 0,-0.045 0.0337,-0.045 0.045,0 0.045,-0.045 0,-0.045 0.045,-0.045 0.045,0 0.045,-0.045 0,-0.045 0.09,-0.045 0.09,0 0.09,-0.045 0,-0.045 0.09,-0.045 h 0.09 v -0.18006 -0.1688 h -0.22508 q -0.22507,0 -0.22507,-0.045 0,-0.045 -0.045,-0.045 -0.0337,0 -0.0337,-0.13504 0,-0.13504 0.0337,-0.13504 0.045,0 0.045,-0.0788 0,-0.09 0.045,-0.09 0.045,0 0.045,-0.09 0,-0.09 0.045,-0.09 0.045,0 0.045,-0.09 0,-0.0787 0.045,-0.0787 0.045,0 0.045,-0.12379 0,-0.13504 0.045,-0.13504 0.045,0 0.045,-0.09 0,-0.09 0.045,-0.09 0.045,0 0.045,-0.045 0,-0.045 0.045,-0.045 0.045,0 0.045,-0.045 0,-0.045 0.045,-0.045 0.0337,0 0.0337,-0.045 0,-0.045 0.09,-0.045 0.09,0 0.09,-0.045 0,-0.0337 0.045,-0.0337 0.045,0 0.045,-0.045 0,-0.045 0.045,-0.045 0.045,0 0.045,-0.045 0,-0.045 0.045,-0.045 0.045,0 0.045,-0.045 0,-0.045 0.0337,-0.045 0.0338,0 0.0338,-0.12379 0,-0.13505 -0.0338,-0.13505 -0.0337,0 -0.0337,-0.045 0,-0.045 -0.18006,-0.045 -0.18006,0 -0.18006,0.045 0,0.045 -0.0788,0.045 -0.09,0 -0.09,0.045 0,0.0337 -0.09,0.0337 h -0.09 v -0.0337 -0.045 h 0.045 q 0.045,0 0.045,-0.09 0,-0.0788 0.045,-0.0788 0.045,0 0.045,-0.045 0,-0.045 0.045,-0.045 0.0337,0 0.0337,-0.045 0,-0.045 0.045,-0.045 0.045,0 0.045,-0.045 0,-0.045 0.045,-0.045 0.045,0 0.045,-0.045 0,-0.045 0.045,-0.045 0.045,0 0.045,-0.0788 0,-0.09 0.045,-0.09 0.045,0 0.045,-0.045 0,-0.045 0.045,-0.045 0.045,0 0.045,-0.09 0,-0.09 0.0337,-0.09 0.0338,0 0.0338,-0.09 0,-0.0787 0.045,-0.0787 0.045,0 0.045,-0.13505 0,-0.13505 0.045,-0.13505 0.045,0 0.045,-0.09 0,-0.09 0.045,-0.09 0.045,0 0.045,0.09 0,0.09 0.045,0.09 0.045,0 0.045,0.16881 0,0.18006 0.045,0.18006 0.045,0 0.045,0.09 z m -1.13661,6.05447 h 0.25883 v 0.13504 q 0,0.12379 -0.045,0.12379 -0.045,0 -0.045,0.09 v 0.09 h -0.0787 q -0.09,0 -0.09,0.045 0,0.045 -0.09,0.045 -0.09,0 -0.09,0.0337 0,0.045 -0.13504,0.045 -0.13505,0 -0.13505,-0.045 0,-0.0337 -0.045,-0.0337 -0.0337,0 -0.0337,-0.09 0,-0.09 0.0337,-0.09 0.045,0 0.045,-0.09 0,-0.09 0.045,-0.09 0.045,0 0.045,-0.045 0,-0.045 0.045,-0.045 0.045,0 0.045,-0.0337 0,-0.045 0.27009,-0.045 z m -0.79901,4.86159 v -0.13505 h 0.13504 q 0.13504,0 0.13504,0.045 0,0.045 0.0787,0.045 0.09,0 0.09,0.045 0,0.045 0.13504,0.045 0.13504,0 0.13504,0.045 0,0.045 0.045,0.045 0.045,0 0.045,0.045 0,0.0337 0.09,0.0337 h 0.0787 v 0.09 q 0,0.09 0.045,0.09 0.045,0 0.045,0.18006 v 0.18005 h -0.12379 q -0.13504,0 -0.13504,-0.045 0,-0.045 -0.09,-0.045 -0.09,0 -0.09,-0.045 0,-0.045 -0.045,-0.045 -0.045,0 -0.045,-0.045 0,-0.045 -0.09,-0.045 -0.09,0 -0.09,-0.045 0,-0.045 -0.045,-0.045 -0.0337,0 -0.0337,-0.045 0,-0.045 -0.045,-0.045 -0.045,0 -0.045,-0.045 0,-0.045 -0.045,-0.045 -0.045,0 -0.045,-0.0337 0,-0.045 -0.045,-0.045 -0.045,0 -0.045,-0.13504 z m 2.99348,0.34885 v 0.13505 h -0.13506 q -0.13504,0 -0.13504,0.045 0,0.045 -0.12379,0.045 -0.13504,0 -0.13504,0.045 0,0.045 -0.22508,0.045 h -0.21381 v -0.13504 q 0,-0.13504 0.0338,-0.13504 0.045,0 0.045,-0.09 0,-0.09 0.045,-0.09 0.045,0 0.045,-0.0337 0,-0.045 0.045,-0.045 0.045,0 0.045,-0.045 0,-0.045 0.045,-0.045 0.045,0 0.045,-0.045 0,-0.045 0.18006,-0.045 0.1688,0 0.1688,0.045 0,0.045 0.045,0.045 0.045,0 0.045,0.045 0,0.045 0.045,0.045 0.045,0 0.045,0.045 0,0.0337 0.045,0.0337 0.045,0 0.045,0.13504 z"
       id="path2576" />
    <path
       style="fill:#b3dfea;fill-opacity:1;stroke:#000000;stroke-width:0;stroke-linecap:butt;stroke-linejoin:miter;stroke-miterlimit:4;stroke-dasharray:none;stroke-dashoffset:0;stroke-opacity:1"
       d="M 70.246021,170.23318 H 29.968403 m 40.277618,0 v -17.36373 c 0.0316,-0.003 -40.277618,0.0329 -40.277618,0.0329 v 17.33044"
       id="path970-9-7"
       inkscape:connector-curvature="0"
       sodipodi:nodetypes="cccccc" />
    <path
       inkscape:connector-curvature="0"
       style="fill:#ffb914;stroke-width:0.0394921"
       d="m 69.974031,155.57905 c -3.980386,0 -7.207268,3.22691 -7.207268,7.20733 0,1.38536 0.391387,2.67907 1.068604,3.77778 h 12.277281 c 0.677284,-1.09871 1.068654,-2.39242 1.068654,-3.77778 0,-3.98042 -3.226882,-7.20733 -7.207271,-7.20733 z"
       id="path2149-2-5" />
    <path
       inkscape:connector-curvature="0"
       style="fill:#ffffff;fill-opacity:1;stroke:#d5f6ff;stroke-width:0.63276219;stroke-miterlimit:4;stroke-dasharray:none;stroke-opacity:1"
       d="m 78.561663,161.55079 a 8.3648206,8.3648206 0 0 1 -8.364782,8.3648 8.3648206,8.3648206 0 0 1 -8.364772,-8.3648 8.3648206,8.3648206 0 0 1 8.364772,-8.36483 8.3648206,8.3648206 0 0 1 8.364782,8.36483 z"
       id="path817-0-2-3" />
    <text
       xml:space="preserve"
       style="font-style:normal;font-weight:normal;font-size:18.30818558px;line-height:1.25;font-family:sans-serif;letter-spacing:0px;word-spacing:0px;fill:#2c89a0;fill-opacity:1;stroke:none;stroke-width:0.45770463"
       x="35.305893"
       y="180.61642"
       id="text836-1-8-7"
       transform="scale(1.0758479,0.92949942)"><tspan
         sodipodi:role="line"
         id="tspan834-6-6-4"
         x="35.305893"
         y="180.61642"
         style="fill:#2c89a0;stroke-width:0.45770463">P</tspan></text>
    <text
       xml:space="preserve"
       style="font-style:normal;font-weight:normal;font-size:18.30818558px;line-height:1.25;font-family:sans-serif;letter-spacing:0px;word-spacing:0px;fill:#37abc8;fill-opacity:1;stroke:none;stroke-width:0.45770463"
       x="45.486382"
       y="180.64383"
       id="text836-1-4-2-7"
       transform="scale(1.0758479,0.92949942)"><tspan
         sodipodi:role="line"
         id="tspan834-6-5-3-51"
         x="45.486382"
         y="180.64383"
         style="fill:#37abc8;stroke-width:0.45770463">L</tspan></text>
    <circle
       style="fill:#216778;fill-opacity:1;stroke:none;stroke-width:0;stroke-miterlimit:4;stroke-dasharray:none"
       id="path817-3-5"
       cx="29.908646"
       cy="161.54781"
       r="8.7035866" />
    <path
       inkscape:connector-curvature="0"
       style="font-style:normal;font-weight:normal;font-size:18.20610428px;line-height:1.25;font-family:sans-serif;letter-spacing:0px;word-spacing:0px;fill:#d7eef4;fill-opacity:1;stroke:none;stroke-width:0.4551526"
       d="m 25.192665,154.22892 c -0.486031,0.31557 -0.910648,0.64801 -1.324467,1.05368 l 0.120923,0.15503 h 5.29e-4 l 4.847765,6.15363 -4.95887,6.14123 h -5.29e-4 l -0.04393,0.0486 c 0.413819,0.40567 0.78676,0.71331 1.27279,1.02887 l 0.831991,-1.07073 h 5.29e-4 l 3.978569,-5.06533 3.881923,5.0643 h -0.004 l 0.850064,1.11156 c 0.486027,-0.31557 0.949404,-0.68574 1.363221,-1.09141 l -0.0176,-0.0207 h -0.002 l -4.9051,-6.22081 4.91389,-6.0787 h 0.002 l 0.0481,-0.0584 c -0.413837,-0.40567 -0.790384,-0.73604 -1.276421,-1.05161 l -0.845937,1.10742 h -5.3e-4 l -3.921196,4.99918 -3.835424,-4.99918 h -0.0036 z"
       id="text836-0-4" />
    <flowRoot
       xml:space="preserve"
       id="flowRoot2678"
       style="font-style:normal;font-weight:normal;font-size:40px;line-height:1.25;font-family:sans-serif;letter-spacing:0px;word-spacing:0px;fill:#000000;fill-opacity:1;stroke:none"
       transform="matrix(0.26458333,0,0,0.26458333,5.488157,0.81530708)"><flowRegion
         id="flowRegion2680"><rect
           id="rect2682"
           width="87.501915"
           height="99.656425"
           x="5.5"
           y="393.51968" /></flowRegion><flowPara
         id="flowPara2684">1</flowPara></flowRoot>    <flowRoot
       xml:space="preserve"
       id="flowRoot2678-8"
       style="font-style:normal;font-weight:normal;font-size:40px;line-height:1.25;font-family:sans-serif;letter-spacing:0px;word-spacing:0px;fill:#000000;fill-opacity:1;stroke:none"
       transform="matrix(0.26458333,0,0,0.26458333,4.2633456,26.474542)"><flowRegion
         id="flowRegion2680-5"><rect
           id="rect2682-7"
           width="87.501915"
           height="99.656425"
           x="5.5"
           y="393.51968" /></flowRegion><flowPara
         id="flowPara2684-8">2</flowPara></flowRoot>    <flowRoot
       xml:space="preserve"
       id="flowRoot2710"
       style="fill:black;fill-opacity:1;stroke:none;font-family:sans-serif;font-style:normal;font-weight:normal;font-size:40px;line-height:1.25;letter-spacing:0px;word-spacing:0px"><flowRegion
         id="flowRegion2712"><rect
           id="rect2714"
           width="66.46804"
           height="106.41957"
           x="-0.70710677"
           y="478.69897" /></flowRegion><flowPara
         id="flowPara2716"></flowPara></flowRoot>    <text
       xml:space="preserve"
       style="font-style:normal;font-weight:normal;font-size:10.58333302px;line-height:1.25;font-family:sans-serif;letter-spacing:0px;word-spacing:0px;fill:#000000;fill-opacity:1;stroke:none;stroke-width:0.26458332"
       x="6.0803814"
       y="165.94438"
       id="text2720"><tspan
         sodipodi:role="line"
         id="tspan2718"
         x="6.0803814"
         y="165.94438"
         style="stroke-width:0.26458332">3</tspan></text>
    <text
       xml:space="preserve"
       style="font-style:normal;font-weight:normal;font-size:10.58333302px;line-height:1.25;font-family:sans-serif;letter-spacing:0px;word-spacing:0px;fill:#000000;fill-opacity:1;stroke:none;stroke-width:0.26458332"
       x="6.7351918"
       y="190.35945"
       id="text2724"><tspan
         sodipodi:role="line"
         id="tspan2722"
         x="6.7351918"
         y="190.35945"
         style="stroke-width:0.26458332">4</tspan></text>
    <text
       xml:space="preserve"
       style="font-style:normal;font-weight:normal;font-size:10.58333302px;line-height:1.25;font-family:sans-serif;letter-spacing:0px;word-spacing:0px;fill:#000000;fill-opacity:1;stroke:none;stroke-width:0.26458332"
       x="93.824974"
       y="113.93374"
       id="text2728"><tspan
         sodipodi:role="line"
         id="tspan2726"
         x="93.824974"
         y="113.93374"
         style="stroke-width:0.26458332">5</tspan></text>
    <text
       xml:space="preserve"
       style="font-style:normal;font-weight:normal;font-size:10.58333302px;line-height:1.25;font-family:sans-serif;letter-spacing:0px;word-spacing:0px;fill:#000000;fill-opacity:1;stroke:none;stroke-width:0.26458332"
       x="93.170158"
       y="139.84552"
       id="text2732"><tspan
         sodipodi:role="line"
         id="tspan2730"
         x="93.170158"
         y="139.84552"
         style="stroke-width:0.26458332">6</tspan></text>
    <path
       style="fill:#b3dfea;fill-opacity:1;stroke:#000000;stroke-width:0;stroke-linecap:butt;stroke-linejoin:miter;stroke-miterlimit:4;stroke-dasharray:none;stroke-dashoffset:0;stroke-opacity:1"
       d="m 150.71266,170.61261 h -34.15935 m 34.15935,0 v -17.36373 c 0.0268,-0.003 -34.15935,0.0329 -34.15935,0.0329 v 17.33044"
       id="path970-9-74"
       inkscape:connector-curvature="0"
       sodipodi:nodetypes="cccccc" />
    <path
       inkscape:connector-curvature="0"
       style="fill:#ffffff;fill-opacity:1;stroke:#d5f6ff;stroke-width:1.75250506;stroke-miterlimit:4;stroke-dasharray:none;stroke-opacity:1"
       d="m 158.51481,161.93022 a 7.797548,7.797548 0 0 1 -7.79755,7.79754 7.797548,7.797548 0 0 1 -7.79756,-7.79754 7.797548,7.797548 0 0 1 7.79756,-7.79757 7.797548,7.797548 0 0 1 7.79755,7.79757 z"
       id="path817-0-2-1" />
    <text
       xml:space="preserve"
       style="font-style:normal;font-weight:normal;font-size:25.38819504px;line-height:1.25;font-family:sans-serif;letter-spacing:0px;word-spacing:0px;fill:#2c89a0;fill-opacity:1;stroke:none;stroke-width:0.63470489"
       x="108.65469"
       y="183.45078"
       id="text836-1-8-89"
       transform="scale(1.0758479,0.92949942)"><tspan
         sodipodi:role="line"
         id="tspan834-6-6-1"
         x="108.65469"
         y="183.45078"
         style="fill:#2c89a0;stroke-width:0.63470489">P</tspan></text>
    <text
       xml:space="preserve"
       style="font-style:normal;font-weight:normal;font-size:25.38819504px;line-height:1.25;font-family:sans-serif;letter-spacing:0px;word-spacing:0px;fill:#37abc8;fill-opacity:1;stroke:none;stroke-width:0.63470489"
       x="120.72013"
       y="183.48877"
       id="text836-1-4-2-75"
       transform="scale(1.0758479,0.92949942)"><tspan
         sodipodi:role="line"
         id="tspan834-6-5-3-4"
         x="120.72013"
         y="183.48877"
         style="fill:#37abc8;stroke-width:0.63470489">L</tspan></text>
    <circle
       style="fill:#216778;fill-opacity:1;stroke:none;stroke-width:0;stroke-miterlimit:4;stroke-dasharray:none"
       id="path817-3-4"
       cx="113.43433"
       cy="161.92725"
       r="8.7035866" />
    <path
       inkscape:connector-curvature="0"
       style="font-style:normal;font-weight:normal;font-size:18.20610428px;line-height:1.25;font-family:sans-serif;letter-spacing:0px;word-spacing:0px;fill:#d7eef4;fill-opacity:1;stroke:none;stroke-width:0.4551526"
       d="m 108.71833,154.60835 c -0.48603,0.31557 -0.91065,0.64801 -1.32447,1.05368 l 0.12093,0.15503 h 5.2e-4 l 4.84777,6.15363 -4.95887,6.14123 h -5.3e-4 l -0.0439,0.0486 c 0.41382,0.40567 0.78676,0.71331 1.27279,1.02887 l 0.83199,-1.07073 h 5.3e-4 l 3.97857,-5.06533 3.88193,5.0643 h -0.004 l 0.85008,1.11156 c 0.48603,-0.31557 0.9494,-0.68574 1.36322,-1.09141 l -0.0176,-0.0207 h -0.002 l -4.90512,-6.22081 4.91391,-6.0787 h 0.002 l 0.0481,-0.0584 c -0.41383,-0.40567 -0.79039,-0.73604 -1.27642,-1.05161 l -0.84594,1.10742 h -5.3e-4 l -3.92121,4.99918 -3.83542,-4.99918 h -0.004 z"
       id="text836-0-5" />
    <text
       xml:space="preserve"
       style="font-style:normal;font-weight:normal;font-size:10.58333302px;line-height:1.25;font-family:sans-serif;letter-spacing:0px;word-spacing:0px;fill:#000000;fill-opacity:1;stroke:none;stroke-width:0.26458332"
       x="93.273895"
       y="163.91768"
       id="text2732-7"><tspan
         sodipodi:role="line"
         id="tspan2730-3"
         x="93.273895"
         y="163.91768"
         style="stroke-width:0.26458332">7</tspan></text>
    <flowRoot
       xml:space="preserve"
       id="flowRoot2852"
       style="fill:black;fill-opacity:1;stroke:none;font-family:sans-serif;font-style:normal;font-weight:normal;font-size:40px;line-height:1.25;letter-spacing:0px;word-spacing:0px"><flowRegion
         id="flowRegion2854"><rect
           id="rect2856"
           width="375"
           height="134"
           x="379"
           y="585.01971" /></flowRegion><flowPara
         id="flowPara2858"></flowPara></flowRoot>    <path
       style="fill:#19abbf;stroke-width:0.0394921"
       d="m 60.423061,137.61369 c -0.636329,1.01114 -1.412662,1.92162 -2.284694,2.73006 a 8.7035865,8.7035865 0 0 0 6.724882,3.18224 8.7035865,8.7035865 0 0 0 6.677289,-3.12441 c -0.899309,-0.82291 -1.700234,-1.75148 -2.352689,-2.78789 z"
       id="path2151-8"
       inkscape:connector-curvature="0" />
    <path
       inkscape:connector-curvature="0"
       style="fill:#ffffff;stroke-width:0.0394921"
       d="m 69.189027,137.61461 c -3.97e-4,0 -1.461604,1.15003 -1.461604,1.15003 l -1.461209,-1.15003 -1.46121,1.15003 -1.460807,-1.15003 -1.46121,1.15003 -1.460814,-1.15003 c 0.512182,-0.81429 2.961182,-3.35783 4.498215,-4.2768 1.51875,1.03825 3.820622,3.38797 4.268639,4.2768 z"
       id="path2153-4"
       sodipodi:nodetypes="ccccccccc" />
    <path
       inkscape:connector-curvature="0"
       style="fill:#19abbf;fill-opacity:1;stroke:#d5f6ff;stroke-width:1.75144482;stroke-miterlimit:4;stroke-dasharray:none;stroke-opacity:1"
       d="m 73.350328,132.00309 c -0.636329,1.01115 -1.412582,1.92163 -2.284614,2.73007 a 8.7035865,8.7035865 0 0 0 6.724653,3.18224 8.7035865,8.7035865 0 0 0 6.677112,-3.12436 c -0.899308,-0.82291 -1.699855,-1.75154 -2.35231,-2.78795 z"
       id="path817-0-2-19" />
  </g>
</svg>
