<?xml version="1.0" encoding="UTF-8" standalone="no"?>
<!-- Created with Inkscape (http://www.inkscape.org/) -->

<svg
   xmlns:dc="http://purl.org/dc/elements/1.1/"
   xmlns:cc="http://creativecommons.org/ns#"
   xmlns:rdf="http://www.w3.org/1999/02/22-rdf-syntax-ns#"
   xmlns:svg="http://www.w3.org/2000/svg"
   xmlns="http://www.w3.org/2000/svg"
   xmlns:sodipodi="http://sodipodi.sourceforge.net/DTD/sodipodi-0.dtd"
   xmlns:inkscape="http://www.inkscape.org/namespaces/inkscape"
   width="297mm"
   height="210mm"
   viewBox="0 0 297 210"
   version="1.1"
   id="svg981"
   inkscape:version="0.92.3 (2405546, 2018-03-11)"
   sodipodi:docname="logo_v2.svg">
  <defs
     id="defs975" />
  <sodipodi:namedview
     id="base"
     pagecolor="#ffffff"
     bordercolor="#666666"
     borderopacity="1.0"
     inkscape:pageopacity="0.0"
     inkscape:pageshadow="2"
     inkscape:zoom="1.4"
     inkscape:cx="597.18223"
     inkscape:cy="409.99987"
     inkscape:document-units="mm"
     inkscape:current-layer="layer1"
     showgrid="false"
     inkscape:window-width="2560"
     inkscape:window-height="1346"
     inkscape:window-x="2389"
     inkscape:window-y="-11"
     inkscape:window-maximized="1"
     inkscape:object-paths="false" />
  <metadata
     id="metadata978">
    <rdf:RDF>
      <cc:Work
         rdf:about="">
        <dc:format>image/svg+xml</dc:format>
        <dc:type
           rdf:resource="http://purl.org/dc/dcmitype/StillImage" />
        <dc:title></dc:title>
      </cc:Work>
    </rdf:RDF>
  </metadata>
  <g
     inkscape:label="Layer 1"
     inkscape:groupmode="layer"
     id="layer1"
     transform="translate(0,-87)">
    <rect
       style="opacity:1;fill:#ffdd55;fill-opacity:1;stroke:#00abe0;stroke-width:10;stroke-miterlimit:4;stroke-dasharray:none;stroke-dashoffset:0;stroke-opacity:1"
       id="rect838"
       width="332.80804"
       height="157.61607"
       x="-14.174108"
       y="111.03571" />
    <path
       inkscape:connector-curvature="0"
       id="path827"
       d="m 104.17023,157.47027 v 65.26103 h 10.04615 v -24.32493 h 10.04405 c 5.41114,0 9.89284,-0.55624 13.44389,-1.66656 3.55106,-1.13954 6.62675,-2.83333 9.23087,-5.0832 2.09681,-1.81159 3.72087,-3.94499 4.87074,-6.39939 1.18368,-2.48362 1.77556,-5.17144 1.77556,-8.06413 0,-3.79848 -0.79541,-6.94027 -2.38494,-9.42389 -1.55569,-2.48362 -3.76953,-4.55781 -6.6442,-6.22329 -2.435,-1.40252 -5.22622,-2.42525 -8.37144,-3.06807 -3.14522,-0.67205 -6.98311,-1.00757 -11.51494,-1.00757 z m 10.04615,7.45052 h 9.94319 c 3.17904,0 5.79994,0.20455 7.86293,0.61361 2.09682,0.37985 3.95553,1.0222 5.57887,1.92799 1.86007,1.05189 3.24737,2.41014 4.1605,4.07564 0.91313,1.66549 1.37003,3.62486 1.37003,5.87472 0,1.92847 -0.33852,3.66531 -1.01491,5.21392 -0.64257,1.54861 -1.75989,3.02531 -3.34942,4.42783 -1.58952,1.37329 -3.65176,2.38167 -6.18823,3.0245 -2.53646,0.6136 -5.83441,0.92042 -9.89275,0.92042 h -8.47021 z"
       style="font-style:normal;font-weight:normal;font-size:medium;line-height:1.25;font-family:sans-serif;letter-spacing:0px;word-spacing:0px;fill:#00abe0;fill-opacity:1;stroke:#00abe0;stroke-width:10;stroke-opacity:1;stroke-miterlimit:4;stroke-dasharray:none" />
    <g
       aria-label="L"
       transform="scale(1.0758479,0.92949942)"
       style="font-style:normal;font-weight:normal;font-size:96.56918335px;line-height:1.25;font-family:sans-serif;letter-spacing:0px;word-spacing:0px;fill:#00abe0;fill-opacity:1;stroke:#00abe0;stroke-width:10;stroke-opacity:1;stroke-miterlimit:4;stroke-dasharray:none"
       id="text836-1-4-2-6-1">
      <path
         d="m 187.24804,239.76891 h -44.41806 v -70.2107 h 9.33628 v 61.91178 h 35.08178 z"
         style="fill:#00abe0;fill-opacity:1;stroke:#00abe0;stroke-width:10;stroke-opacity:1;stroke-miterlimit:4;stroke-dasharray:none"
         id="path830" />
    </g>
    <path
       style="color:#000000;font-style:normal;font-variant:normal;font-weight:normal;font-stretch:normal;font-size:medium;line-height:normal;font-family:sans-serif;font-variant-ligatures:normal;font-variant-position:normal;font-variant-caps:normal;font-variant-numeric:normal;font-variant-alternates:normal;font-feature-settings:normal;text-indent:0;text-align:start;text-decoration:none;text-decoration-line:none;text-decoration-style:solid;text-decoration-color:#000000;letter-spacing:normal;word-spacing:normal;text-transform:none;writing-mode:lr-tb;direction:ltr;text-orientation:mixed;dominant-baseline:auto;baseline-shift:baseline;text-anchor:start;white-space:normal;shape-padding:0;clip-rule:nonzero;display:inline;overflow:visible;visibility:visible;opacity:1;isolation:auto;mix-blend-mode:normal;color-interpolation:sRGB;color-interpolation-filters:linearRGB;solid-color:#000000;solid-opacity:1;vector-effect:none;fill:#ffffff;fill-opacity:1;fill-rule:nonzero;stroke:#ffffff;stroke-width:9.06423092;stroke-linecap:butt;stroke-linejoin:miter;stroke-miterlimit:4;stroke-dasharray:none;stroke-dashoffset:0;stroke-opacity:1;color-rendering:auto;image-rendering:auto;shape-rendering:auto;text-rendering:auto;enable-background:accumulate"
       d="m 239.86775,148.03729 c -22.7573,-4e-5 -41.29345,18.53609 -41.29341,41.29343 2e-5,22.75722 18.53616,41.29341 41.29341,41.29337 22.75727,0 41.30271,-18.53615 41.30274,-41.29337 2e-5,-22.75734 -18.54544,-41.29343 -41.30274,-41.29343 z m 0,8.33684 c 18.24915,0 32.95661,14.70742 32.95661,32.95659 -5e-5,18.24909 -14.7075,32.95653 -32.95661,32.95653 -18.24912,6e-5 -32.94724,-14.70744 -32.94728,-32.95653 -1e-5,-18.2492 14.69813,-32.95659 32.94728,-32.95659 z"
       id="path817-0-2-34-0"
       inkscape:connector-curvature="0"
       inkscape:export-xdpi="32.604076"
       inkscape:export-ydpi="32.604076" />
    <circle
       style="fill:#00abe0;fill-opacity:1;stroke:none;stroke-width:0;stroke-miterlimit:4;stroke-dasharray:none;stroke-opacity:1"
       id="path817-3-7-9"
       cx="58.325943"
       cy="189.31557"
       r="45.908325"
       inkscape:export-xdpi="32.604076"
       inkscape:export-ydpi="32.604076" />
    <path
       id="text836-0-3-7"
       style="font-style:normal;font-weight:normal;font-size:18.20610428px;line-height:1.25;font-family:sans-serif;letter-spacing:0px;word-spacing:0px;fill:#ffffff;fill-opacity:1;stroke:#ffffff;stroke-width:10;stroke-opacity:1;stroke-miterlimit:4;stroke-dasharray:none"
       d="m 33.451172,150.71094 c -2.563628,1.66451 -4.803572,3.41882 -6.986328,5.55859 l 0.636718,0.81641 h 0.0039 l 25.570312,32.45898 -26.15625,32.39258 h -0.0039 l -0.230469,0.25586 c 2.182754,2.13977 4.149256,3.76322 6.712891,5.42773 l 4.388672,-5.64843 h 0.002 L 58.375,195.25586 78.849609,221.9668 h -0.02148 l 4.484375,5.86328 c 2.563642,-1.66445 5.008649,-3.6161 7.191406,-5.75586 l -0.09375,-0.10938 h -0.0078 l -25.873047,-32.8125 25.919922,-32.0625 h 0.0078 l 0.253907,-0.30859 c -2.182799,-2.13979 -4.16878,-3.88236 -6.732422,-5.54687 l -4.462891,5.84179 h -0.002 L 58.830078,183.44531 38.599609,157.07617 h -0.01758 z" />
  </g>
</svg>
